<?xml version="1.0" standalone="no"?>
 <!DOCTYPE svg PUBLIC "-//W3C//DTD SVG 1.1//EN" 
 "http://www.w3.org/Graphics/SVG/1.1/DTD/svg11.dtd"> 
<svg xmlns="http://www.w3.org/2000/svg" version="1.1" 
    width="11.5646cm" height="9.78662cm" viewBox="0 0 45530 38530 ">
<title>SVG Picture created as Fun_Amplifier-B_Cu.svg date 2014/09/18 12:28:12 </title>
  <desc>Picture generated by PCBNEW </desc>
<g style="fill:#000000; fill-opacity:1;stroke:#000000; stroke-opacity:1;
stroke-linecap:round; stroke-linejoin:round; "
 transform="translate(0 0) scale(1 1)">
</g>
<g style="fill:#000000; fill-opacity:0.0; 
stroke:#000000; stroke-width:39.3701; stroke-opacity:1; 
stroke-linecap:round; stroke-linejoin:round;">
<path d="M44019.7 38510.3 A1500 1500 0.0 0 0 45519.7 37010.3 " />
<path d="M1519 38510
L44019 38510
" />
<path d="M1519.69 10.3146 A1500 1500 0.0 0 0 19.6854 1510.31 " />
<path d="M19.6854 37010.3 A1500 1500 0.0 0 0 1519.69 38510.3 " />
<path d="M45519.7 1510.31 A1500 1500 0.0 0 0 44019.7 10.3146 " />
<path d="M44019 10
L1519 10
" />
<path d="M45519 37010
L45519 1510
" />
<path d="M19 1510
L19 37010
" />
</g>
<g style="fill:#000000; fill-opacity:1.0; 
stroke:#000000; stroke-width:39.3701; stroke-opacity:1; 
stroke-linecap:round; stroke-linejoin:round;">
<circle cx="29050.7" cy="4979.31" r="472.315" /> 
<circle cx="31019.7" cy="4979.31" r="472.315" /> 
<circle cx="32988.7" cy="4979.31" r="472.315" /> 
<circle cx="31019.7" cy="3010.31" r="472.315" /> 
<circle cx="29050.7" cy="3010.31" r="472.315" /> 
<circle cx="32988.7" cy="3010.31" r="472.315" /> 
<circle cx="1519.69" cy="37010.3" r="780.315" /> 
<circle cx="44019.7" cy="37010.3" r="780.315" /> 
<polyline style="fill-rule:evenodd;"
points="7789,31779
7789,32740
8750,32740
8750,31779
7789,31779
" /> 
<circle cx="10269.7" cy="32260.3" r="480.315" /> 
<circle cx="12269.7" cy="32260.3" r="480.315" /> 
<circle cx="25519.7" cy="26329.2" r="330.315" /> 
<circle cx="25519.7" cy="20329.2" r="330.315" /> 
<circle cx="27019.7" cy="26329.2" r="330.315" /> 
<circle cx="27019.7" cy="20329.2" r="330.315" /> 
<circle cx="33519.7" cy="25829.2" r="280.315" /> 
<circle cx="33519.7" cy="21829.2" r="280.315" /> 
<circle cx="37019.7" cy="29329.2" r="280.315" /> 
<circle cx="33019.7" cy="29329.2" r="280.315" /> 
<circle cx="35519.7" cy="18010.3" r="280.315" /> 
<circle cx="35519.7" cy="14010.3" r="280.315" /> 
<circle cx="24019.7" cy="25329.2" r="280.315" /> 
<circle cx="24019.7" cy="21329.2" r="280.315" /> 
<circle cx="31519.7" cy="25829.2" r="280.315" /> 
<circle cx="31519.7" cy="21829.2" r="280.315" /> 
<circle cx="35519.7" cy="28329.2" r="280.315" /> 
<circle cx="31519.7" cy="28329.2" r="280.315" /> 
<circle cx="28519.7" cy="25329.2" r="280.315" /> 
<circle cx="28519.7" cy="21329.2" r="280.315" /> 
</g>
<g style="fill:#000000; fill-opacity:1.0; 
stroke:#000000; stroke-width:600; stroke-opacity:1; 
stroke-linecap:round; stroke-linejoin:round;">
<path d="M25019 31629
L25019 31029
" />
<path d="M25519 33629
L25519 33029
" />
<path d="M26019 31629
L26019 31029
" />
<path d="M26519 33629
L26519 33029
" />
<path d="M27019 31629
L27019 31029
" />
<path d="M27519 33629
L27519 33029
" />
<path d="M28019 31629
L28019 31029
" />
<path d="M28519 33629
L28519 33029
" />
<path d="M29019 31629
L29019 31029
" />
<path d="M29519 33629
L29519 33029
" />
<path d="M30019 31629
L30019 31029
" />
<path d="M31019 31623
L31019 31023
" />
<path d="M32019 31623
L32019 31023
" />
<path d="M30519 33629
L30519 33029
" />
<path d="M31519 33629
L31519 33029
" />
</g>
<g style="fill:#000000; fill-opacity:1.0; 
stroke:#000000; stroke-width:39.3701; stroke-opacity:1; 
stroke-linecap:round; stroke-linejoin:round;">
<circle cx="37519.7" cy="18010.3" r="280.315" /> 
<circle cx="37519.7" cy="14010.3" r="280.315" /> 
<polyline style="fill-rule:evenodd;"
points="21500,21348
20539,21348
20539,22309
21500,22309
21500,21348
" /> 
<circle cx="21019.7" cy="23829.2" r="480.315" /> 
<polyline style="fill-rule:evenodd;"
points="20539,18809
21500,18809
21500,17848
20539,17848
20539,18809
" /> 
<circle cx="21019.7" cy="16329.2" r="480.315" /> 
<circle cx="26519.7" cy="17510.3" r="255.315" /> 
<circle cx="26519.7" cy="15510.3" r="255.315" /> 
<circle cx="28019.7" cy="17510.3" r="255.315" /> 
<circle cx="28019.7" cy="15510.3" r="255.315" /> 
<circle cx="23619.7" cy="29110.3" r="255.315" /> 
<circle cx="23619.7" cy="31110.3" r="255.315" /> 
<circle cx="35419.7" cy="32510.3" r="255.315" /> 
<circle cx="35419.7" cy="30510.3" r="255.315" /> 
<polyline style="fill-rule:evenodd;"
points="34239,20790
34800,20790
34800,20229
34239,20229
34239,20790
" /> 
<circle cx="34519.7" cy="19510.3" r="280.315" /> 
<polyline style="fill-rule:evenodd;"
points="31239,20790
31800,20790
31800,20229
31239,20229
31239,20790
" /> 
<circle cx="31519.7" cy="19510.3" r="280.315" /> 
<polyline style="fill-rule:evenodd;"
points="5764,26765
6275,26765
6275,26254
5764,26254
5764,26765
" /> 
<circle cx="6019.69" cy="22510.3" r="255.315" /> 
<polyline style="fill-rule:evenodd;"
points="5764,32765
6275,32765
6275,32254
5764,32254
5764,32765
" /> 
<circle cx="6019.69" cy="28510.3" r="255.315" /> 
<polyline style="fill-rule:evenodd;"
points="17275,29254
16764,29254
16764,29765
17275,29765
17275,29254
" /> 
<circle cx="17019.7" cy="33510.3" r="255.315" /> 
<polyline style="fill-rule:evenodd;"
points="16764,26765
17275,26765
17275,26254
16764,26254
16764,26765
" /> 
<circle cx="17019.7" cy="22510.3" r="255.315" /> 
<circle cx="1519.69" cy="1510.31" r="780.315" /> 
<circle cx="44019.7" cy="1510.31" r="780.315" /> 
<polyline style="fill-rule:evenodd;"
points="19935,27441
19935,28110
20604,28110
20604,27441
19935,27441
" /> 
<circle cx="20269.7" cy="29744.6" r="334.646" /> 
<polyline style="fill-rule:evenodd;"
points="40604,31079
40604,30409
39935,30409
39935,31079
40604,31079
" /> 
<circle cx="40269.7" cy="28776.1" r="334.646" /> 
<polyline style="fill-rule:evenodd;"
points="36800,24729
36239,24729
36239,25290
36800,25290
36800,24729
" /> 
<circle cx="36519.7" cy="26010.3" r="280.315" /> 
<polyline style="fill-rule:evenodd;"
points="39550,24729
38989,24729
38989,25290
39550,25290
39550,24729
" /> 
<circle cx="39269.7" cy="26010.3" r="280.315" /> 
<circle cx="8769.69" cy="12510.3" r="330.315" /> 
<circle cx="1769.69" cy="12510.3" r="330.315" /> 
<circle cx="11769.7" cy="12510.3" r="330.315" /> 
<circle cx="18769.7" cy="12510.3" r="330.315" /> 
<circle cx="4269.69" cy="26510.3" r="452.756" /> 
<polyline style="fill-rule:evenodd;"
points="3816,21963
4722,21963
4722,21057
3816,21057
3816,21963
" /> 
<circle cx="4269.69" cy="33510.3" r="452.756" /> 
<polyline style="fill-rule:evenodd;"
points="3816,28963
4722,28963
4722,28057
3816,28057
3816,28963
" /> 
<circle cx="15269.7" cy="28510.3" r="452.756" /> 
<polyline style="fill-rule:evenodd;"
points="15722,33057
14816,33057
14816,33963
15722,33963
15722,33057
" /> 
<circle cx="15269.7" cy="21510.3" r="452.756" /> 
<polyline style="fill-rule:evenodd;"
points="15722,26057
14816,26057
14816,26963
15722,26963
15722,26057
" /> 
<polyline style="fill-rule:evenodd;"
points="4169,17884
4917,17884
4917,17136
4169,17136
4169,17884
" /> 
<circle cx="7496.06" cy="17510.3" r="374.016" /> 
<polyline style="fill-rule:evenodd;"
points="12669,17884
13417,17884
13417,17136
12669,17136
12669,17884
" /> 
<circle cx="15996.1" cy="17510.3" r="374.016" /> 
<circle cx="5019.69" cy="2760.31" r="255.315" /> 
<circle cx="7019.69" cy="2760.31" r="255.315" /> 
<circle cx="13519.7" cy="2760.31" r="255.315" /> 
<circle cx="15519.7" cy="2760.31" r="255.315" /> 
<polyline style="fill-rule:evenodd;"
points="4169,7634
4917,7634
4917,6886
4169,6886
4169,7634
" /> 
<circle cx="7496.06" cy="7260.31" r="374.016" /> 
<polyline style="fill-rule:evenodd;"
points="12669,7634
13417,7634
13417,6886
12669,6886
12669,7634
" /> 
<circle cx="15996.1" cy="7260.31" r="374.016" /> 
<polyline style="fill-rule:evenodd;"
points="39500,2529
38539,2529
38539,3490
39500,3490
39500,2529
" /> 
<circle cx="39019.7" cy="5010.31" r="480.315" /> 
<circle cx="39019.7" cy="7010.31" r="480.315" /> 
<circle cx="30519.7" cy="27510.3" r="280.315" /> 
<circle cx="26519.7" cy="27510.3" r="280.315" /> 
<circle cx="30019.7" cy="29010.3" r="280.315" /> 
<circle cx="26019.7" cy="29010.3" r="280.315" /> 
</g>
<g style="fill:#000000; fill-opacity:1.0; 
stroke:#000000; stroke-width:393.701; stroke-opacity:1; 
stroke-linecap:round; stroke-linejoin:round;">
<path d="M35519 14010
L34519 13010
" />
<path d="M34519 13010
L29019 13010
" />
<path d="M29019 13329
L30338 13329
" />
<path d="M31519 14510
L31519 19510
" />
<path d="M30338 13329
L31519 14510
" />
<path d="M34519 19510
L34019 19510
" />
<path d="M31838 13329
L29019 13329
" />
<path d="M33019 14510
L31838 13329
" />
<path d="M33019 18510
L33019 14510
" />
<path d="M34019 19510
L33019 18510
" />
<path d="M37519 14010
L37519 13010
" />
<path d="M37019 12510
L29019 12510
" />
<path d="M37519 13010
L37019 12510
" />
<path d="M29050 3010
L29050 4979
" />
<path d="M29050 4979
L30019 5948
" />
<path d="M30019 5948
L30019 10010
" />
<path d="M30019 10010
L29019 11010
" />
<path d="M39019 7010
L40519 7010
" />
<path d="M29019 9510
L29019 12010
" />
<path d="M26519 7010
L29019 9510
" />
<path d="M26519 2010
L26519 7010
" />
<path d="M27519 1010
L26519 2010
" />
<path d="M40519 1010
L27519 1010
" />
<path d="M41519 2010
L40519 1010
" />
<path d="M41519 6010
L41519 2010
" />
<path d="M40519 7010
L41519 6010
" />
<path d="M40269 28776
L39503 28776
" />
<path d="M37769 30510
L35419 30510
" />
<path d="M39503 28776
L37769 30510
" />
<path d="M13043 17510
L10275 17510
" />
<path d="M7496 17510
L10275 17510
" />
<path d="M10275 17510
L10275 17435
" />
<path d="M7496 7260
L10275 7260
" />
<path d="M13043 7260
L10275 7260
" />
<path d="M13519 2760
L13519 6783
" />
<path d="M13519 6783
L13043 7260
" />
<path d="M7019 2760
L7019 6783
" />
<path d="M7019 6783
L7496 7260
" />
</g>
<g style="fill:#000000; fill-opacity:1.0; 
stroke:#000000; stroke-width:1574.8; stroke-opacity:1; 
stroke-linecap:round; stroke-linejoin:round;">
<path d="M10275 26760
L10275 32402
" />
<path d="M10269 32407
L10269 32260
" />
<path d="M10275 32402
L10269 32407
" />
</g>
<g style="fill:#000000; fill-opacity:1.0; 
stroke:#000000; stroke-width:393.701; stroke-opacity:1; 
stroke-linecap:round; stroke-linejoin:round;">
<path d="M20269 27776
L20285 27776
" />
<path d="M21619 29110
L23619 29110
" />
<path d="M20285 27776
L21619 29110
" />
</g>
<g style="fill:#000000; fill-opacity:1.0; 
stroke:#000000; stroke-width:1574.8; stroke-opacity:1; 
stroke-linecap:round; stroke-linejoin:round;">
<path d="M10275 3435
L10275 2254
" />
<path d="M22519 11010
L29019 11010
" />
<path d="M20269 8760
L22519 11010
" />
<path d="M20269 3510
L20269 8760
" />
<path d="M18019 1260
L20269 3510
" />
<path d="M11269 1260
L18019 1260
" />
<path d="M10275 2254
L11269 1260
" />
<path d="M10275 7260
L10275 6935
" />
<path d="M10275 6935
L10275 3435
" />
<path d="M10275 26935
L10275 26760
" />
<path d="M10275 26760
L10275 17435
" />
<path d="M10275 17435
L10275 12435
" />
<path d="M10275 12435
L10275 7260
" />
</g>
<g style="fill:#000000; fill-opacity:1.0; 
stroke:#000000; stroke-width:393.701; stroke-opacity:1; 
stroke-linecap:round; stroke-linejoin:round;">
<path d="M21019 16329
L21019 14510
" />
<path d="M29019 12010
L28588 12010
" />
<path d="M27519 13510
L29019 12010
" />
<path d="M22019 13510
L27519 13510
" />
<path d="M21019 14510
L22019 13510
" />
<path d="M28019 15510
L28019 14329
" />
<path d="M28019 14329
L29019 13329
" />
<path d="M26519 15510
L26519 15010
" />
<path d="M26519 15010
L29019 12510
" />
<path d="M29019 23010
L29519 22510
" />
<path d="M23619 27610
L23019 27010
" />
<path d="M23019 27010
L23019 24010
" />
<path d="M23019 24010
L24019 23010
" />
<path d="M24019 23010
L29019 23010
" />
<path d="M23619 29110
L23619 27610
" />
<path d="M29019 14510
L29019 13329
" />
<path d="M29519 15010
L29019 14510
" />
<path d="M29519 22510
L29519 15010
" />
<path d="M31519 24010
L30519 23010
" />
<path d="M35419 30410
L34519 29510
" />
<path d="M34519 29510
L34519 24510
" />
<path d="M34519 24510
L34019 24010
" />
<path d="M34019 24010
L31519 24010
" />
<path d="M35419 30510
L35419 30410
" />
<path d="M29019 13010
L29019 12829
" />
<path d="M30519 14510
L29019 13010
" />
<path d="M30519 23010
L30519 14510
" />
<path d="M29019 12829
L29019 12829
" />
<path d="M19619 20829
L19619 22429
" />
<path d="M19619 22429
L21019 23829
" />
<path d="M21769 12829
L27769 12829
" />
<path d="M27769 12829
L28588 12010
" />
<path d="M28588 12010
L29019 11579
" />
<path d="M29019 11579
L29019 11579
" />
<path d="M20719 12829
L21769 12829
" />
<path d="M19619 13929
L20719 12829
" />
<path d="M19619 20929
L19619 20829
" />
<path d="M19619 20829
L19619 13929
" />
<path d="M31519 33329
L31519 34329
" />
<path d="M29519 31829
L30019 31329
" />
<path d="M29519 33329
L29519 31829
" />
<path d="M29519 31829
L29019 31329
" />
<path d="M29519 34329
L29519 33329
" />
<path d="M27519 33829
L27519 33329
" />
<path d="M28019 34329
L27519 33829
" />
<path d="M31519 34329
L29519 34329
" />
<path d="M29519 34329
L28019 34329
" />
<path d="M27019 30329
L28019 29329
" />
<path d="M27019 30329
L27019 31329
" />
<path d="M27519 33329
L27519 32829
" />
<path d="M27019 32329
L27019 31329
" />
<path d="M27519 32829
L27019 32329
" />
<path d="M29019 13829
L29019 13329
" />
<path d="M29019 12329
L29019 12510
" />
<path d="M29019 12510
L29019 12079
" />
<path d="M29019 12079
L29019 11579
" />
</g>
<g style="fill:#000000; fill-opacity:1.0; 
stroke:#000000; stroke-width:1574.8; stroke-opacity:1; 
stroke-linecap:round; stroke-linejoin:round;">
<path d="M29019 13329
L29019 11010
" />
</g>
<g style="fill:#000000; fill-opacity:1.0; 
stroke:#000000; stroke-width:393.701; stroke-opacity:1; 
stroke-linecap:round; stroke-linejoin:round;">
<path d="M29019 12829
L29019 12829
" />
<path d="M29019 13329
L29019 12579
" />
<path d="M29019 12579
L29019 12329
" />
<path d="M29019 12829
L29019 12329
" />
<path d="M30019 24929
L30019 25329
" />
<path d="M28019 29329
L28019 27329
" />
<path d="M28019 27329
L30019 25329
" />
<path d="M30019 24929
L30019 14829
" />
<path d="M30019 14829
L29019 13829
" />
<path d="M30019 24929
L30019 24829
" />
</g>
<g style="fill:#000000; fill-opacity:1.0; 
stroke:#000000; stroke-width:157.48; stroke-opacity:1; 
stroke-linecap:round; stroke-linejoin:round;">
<path d="M39269 26010
L38519 26010
" />
<path d="M37519 25010
L37519 18010
" />
<path d="M38519 26010
L37519 25010
" />
<path d="M37019 29329
L37200 29329
" />
<path d="M39269 27260
L39269 26010
" />
<path d="M37200 29329
L39269 27260
" />
<path d="M28519 21329
L28519 18010
" />
<path d="M28519 18010
L28019 17510
" />
</g>
<g style="fill:#000000; fill-opacity:1.0; 
stroke:#000000; stroke-width:393.701; stroke-opacity:1; 
stroke-linecap:round; stroke-linejoin:round;">
<path d="M27019 20329
L27019 20010
" />
<path d="M25338 18329
L21019 18329
" />
<path d="M27019 20010
L25338 18329
" />
<path d="M4543 17510
L4543 13033
" />
<path d="M4019 12510
L1769 12510
" />
<path d="M4543 13033
L4019 12510
" />
<path d="M4543 17510
L4543 21236
" />
<path d="M4543 21236
L4269 21510
" />
<path d="M15269 33510
L15019 33510
" />
<path d="M3269 22510
L4269 21510
" />
<path d="M3269 34260
L3269 22510
" />
<path d="M4269 35260
L3269 34260
" />
<path d="M13269 35260
L4269 35260
" />
<path d="M15019 33510
L13269 35260
" />
<path d="M15269 33510
L17019 33510
" />
<path d="M4269 21510
L5019 21510
" />
<path d="M5019 21510
L6019 22510
" />
<path d="M25519 20329
L21519 20329
" />
<path d="M21019 20829
L21019 21829
" />
<path d="M21519 20329
L21019 20829
" />
<path d="M17019 26510
L15269 26510
" />
<path d="M17019 29510
L17019 29010
" />
<path d="M16519 28510
L15269 28510
" />
<path d="M17019 29010
L16519 28510
" />
<path d="M14269 27510
L15269 26510
" />
<path d="M12269 32260
L12269 27760
" />
<path d="M14269 27510
L15269 28510
" />
<path d="M12519 27510
L14269 27510
" />
<path d="M12269 27760
L12519 27510
" />
<path d="M4269 28510
L6019 28510
" />
<path d="M4269 26510
L6019 26510
" />
<path d="M5269 27510
L4269 26510
" />
<path d="M8269 32260
L8269 28260
" />
<path d="M5269 27510
L4269 28510
" />
<path d="M7519 27510
L5269 27510
" />
<path d="M8269 28260
L7519 27510
" />
<path d="M13269 33510
L12769 34010
" />
<path d="M4769 34010
L4269 33510
" />
<path d="M5019 34010
L4769 34010
" />
<path d="M12769 34010
L5019 34010
" />
<path d="M13269 33510
L13769 33010
" />
<path d="M13769 33010
L13769 31510
" />
<path d="M13769 31510
L14269 31010
" />
<path d="M14269 31010
L17769 31010
" />
<path d="M17769 31010
L18519 30260
" />
<path d="M18519 30260
L18519 25010
" />
<path d="M18519 25010
L17519 24010
" />
<path d="M17519 24010
L15769 24010
" />
<path d="M15769 24010
L15269 23510
" />
<path d="M15269 23510
L15269 21510
" />
<path d="M15996 17510
L15996 13033
" />
<path d="M16519 12510
L18769 12510
" />
<path d="M15996 13033
L16519 12510
" />
<path d="M15269 21510
L15269 18236
" />
<path d="M15269 18236
L15996 17510
" />
<path d="M17019 22510
L17019 22010
" />
<path d="M17019 22010
L16519 21510
" />
<path d="M16519 21510
L15269 21510
" />
<path d="M4269 33510
L5019 33510
" />
<path d="M5019 33510
L6019 32510
" />
</g>
<g style="fill:#000000; fill-opacity:1.0; 
stroke:#000000; stroke-width:157.48; stroke-opacity:1; 
stroke-linecap:round; stroke-linejoin:round;">
<path d="M39269 25010
L39269 11260
" />
<path d="M32019 4010
L31019 3010
" />
<path d="M32019 7510
L32019 4010
" />
<path d="M33019 8510
L32019 7510
" />
<path d="M36519 8510
L33019 8510
" />
<path d="M39269 11260
L36519 8510
" />
<path d="M33519 21829
L33700 21829
" />
<path d="M34519 21010
L34519 20510
" />
<path d="M33700 21829
L34519 21010
" />
<path d="M30519 29510
L31769 29510
" />
<path d="M32700 25829
L33519 25829
" />
<path d="M32519 26010
L32700 25829
" />
<path d="M32519 28760
L32519 26010
" />
<path d="M31769 29510
L32519 28760
" />
<path d="M30519 33329
L30519 29510
" />
<path d="M30519 29510
L30019 29010
" />
<path d="M31019 31323
L31019 30829
" />
<path d="M32019 30329
L33019 29329
" />
<path d="M31519 30329
L32019 30329
" />
<path d="M31019 30829
L31519 30329
" />
<path d="M32885 29463
L33019 29329
" />
<path d="M24019 21329
L27200 21329
" />
<path d="M26519 18010
L26519 17510
" />
<path d="M28019 19510
L26519 18010
" />
<path d="M28019 20510
L28019 19510
" />
<path d="M27200 21329
L28019 20510
" />
<path d="M35519 18010
L35519 25010
" />
<path d="M35519 25010
L36519 26010
" />
<path d="M35519 28329
L36200 28329
" />
<path d="M36519 28010
L36519 26010
" />
<path d="M36200 28329
L36519 28010
" />
</g>
<g style="fill:#000000; fill-opacity:1.0; 
stroke:#000000; stroke-width:393.701; stroke-opacity:1; 
stroke-linecap:round; stroke-linejoin:round;">
<path d="M25519 29010
L26019 29010
" />
<path d="M25519 29329
L25019 29829
" />
<path d="M25019 29829
L25019 31329
" />
<path d="M24019 25329
L24519 25329
" />
<path d="M24519 25329
L25519 26329
" />
<path d="M25519 29329
L25519 29010
" />
<path d="M25519 29010
L25519 26329
" />
</g>
<g style="fill:#000000; fill-opacity:1.0; 
stroke:#000000; stroke-width:157.48; stroke-opacity:1; 
stroke-linecap:round; stroke-linejoin:round;">
<path d="M31019 4979
L31019 7510
" />
<path d="M36519 17510
L36519 25010
" />
<path d="M38519 15510
L36519 17510
" />
<path d="M38519 12010
L38519 15510
" />
<path d="M36019 9510
L38519 12010
" />
<path d="M33019 9510
L36019 9510
" />
<path d="M31019 7510
L33019 9510
" />
<path d="M32988 3010
L39019 3010
" />
<path d="M39019 5010
L33019 5010
" />
<path d="M33019 5010
L32988 4979
" />
</g>
<g style="fill:#000000; fill-opacity:1.0; 
stroke:#000000; stroke-width:393.701; stroke-opacity:1; 
stroke-linecap:round; stroke-linejoin:round;">
<path d="M26519 27510
L27019 27510
" />
<path d="M27019 27510
L27019 27329
" />
<path d="M26019 31329
L26019 30329
" />
<path d="M27019 29329
L27019 27329
" />
<path d="M26019 30329
L27019 29329
" />
<path d="M28519 25329
L28019 25329
" />
<path d="M28019 25329
L27019 26329
" />
<path d="M27019 27329
L27019 26329
" />
</g>
<g style="fill:#000000; fill-opacity:1.0; 
stroke:#000000; stroke-width:157.48; stroke-opacity:1; 
stroke-linecap:round; stroke-linejoin:round;">
<path d="M28519 33329
L28519 30510
" />
<path d="M29450 28329
L31519 28329
" />
<path d="M29269 28510
L29450 28329
" />
<path d="M29269 29760
L29269 28510
" />
<path d="M28519 30510
L29269 29760
" />
<path d="M30519 27510
L29019 27510
" />
<path d="M28019 31329
L28019 30260
" />
<path d="M30700 25829
L31519 25829
" />
<path d="M28769 27760
L29019 27510
" />
<path d="M29019 27510
L30700 25829
" />
<path d="M28769 29510
L28769 27760
" />
<path d="M28019 30260
L28769 29510
" />
<path d="M31519 21829
L31519 20510
" />
</g>
<g style="fill:#000000; fill-opacity:1.0; 
stroke:#000000; stroke-width:393.701; stroke-opacity:1; 
stroke-linecap:round; stroke-linejoin:round;">
<path d="M40269 30744
L39535 30744
" />
<path d="M37769 32510
L35419 32510
" />
<path d="M39535 30744
L37769 32510
" />
<path d="M37019 36010
L38519 36010
" />
<path d="M3269 2760
L769 5260
" />
<path d="M769 5260
L769 33260
" />
<path d="M769 33260
L2519 35010
" />
<path d="M3519 36010
L37019 36010
" />
<path d="M2519 35010
L3519 36010
" />
<path d="M5019 2760
L3269 2760
" />
<path d="M40269 34260
L40269 30744
" />
<path d="M38519 36010
L40269 34260
" />
<path d="M4543 7260
L4543 5986
" />
<path d="M5019 5510
L5019 2760
" />
<path d="M4543 5986
L5019 5510
" />
<path d="M8769 12510
L6019 12510
" />
<path d="M4543 11033
L4543 7260
" />
<path d="M6019 12510
L4543 11033
" />
<path d="M32019 31323
L32432 31323
" />
<path d="M32432 31323
L33619 32510
" />
<path d="M25519 33329
L25519 34210
" />
<path d="M25519 34210
L26469 35160
" />
<path d="M26469 35160
L31769 35160
" />
<path d="M31769 35160
L33219 33710
" />
<path d="M33219 33710
L33219 32910
" />
<path d="M33219 32910
L33619 32510
" />
<path d="M33619 32510
L35419 32510
" />
<path d="M15519 2760
L17019 2760
" />
<path d="M19269 28744
L20269 29744
" />
<path d="M19269 24260
L19269 28744
" />
<path d="M18769 23760
L19269 24260
" />
<path d="M18769 13760
L18769 23760
" />
<path d="M19769 12760
L18769 13760
" />
<path d="M19769 11510
L19769 12760
" />
<path d="M18769 10510
L19769 11510
" />
<path d="M18769 4510
L18769 10510
" />
<path d="M17019 2760
L18769 4510
" />
<path d="M15519 2760
L15519 6783
" />
<path d="M15519 6783
L15996 7260
" />
<path d="M11769 12510
L14269 12510
" />
<path d="M15996 10783
L15996 7260
" />
<path d="M14269 12510
L15996 10783
" />
<path d="M23619 31110
L21635 31110
" />
<path d="M21635 31110
L20269 29744
" />
<path d="M26519 33329
L26519 33010
" />
<path d="M23619 31910
L23619 31110
" />
<path d="M24019 32310
L23619 31910
" />
<path d="M25819 32310
L24019 32310
" />
<path d="M26519 33010
L25819 32310
" />
</g>
<g style="fill:#FFFFFF; fill-opacity:1.0; 
stroke:#FFFFFF; stroke-width:39.3701; stroke-opacity:1; 
stroke-linecap:round; stroke-linejoin:round;">
<circle cx="29050.7" cy="4979.31" r="216.315" /> 
<circle cx="31019.7" cy="4979.31" r="216.315" /> 
<circle cx="32988.7" cy="4979.31" r="216.315" /> 
<circle cx="31019.7" cy="3010.31" r="216.315" /> 
<circle cx="29050.7" cy="3010.31" r="216.315" /> 
<circle cx="32988.7" cy="3010.31" r="216.315" /> 
<circle cx="1519.69" cy="37010.3" r="580.315" /> 
<circle cx="44019.7" cy="37010.3" r="580.315" /> 
<circle cx="8269.69" cy="32260.3" r="280.315" /> 
<circle cx="10269.7" cy="32260.3" r="280.315" /> 
<circle cx="12269.7" cy="32260.3" r="280.315" /> 
<circle cx="25519.7" cy="26329.2" r="205.315" /> 
<circle cx="25519.7" cy="20329.2" r="205.315" /> 
<circle cx="27019.7" cy="26329.2" r="205.315" /> 
<circle cx="27019.7" cy="20329.2" r="205.315" /> 
<circle cx="33519.7" cy="25829.2" r="140.315" /> 
<circle cx="33519.7" cy="21829.2" r="140.315" /> 
<circle cx="37019.7" cy="29329.2" r="140.315" /> 
<circle cx="33019.7" cy="29329.2" r="140.315" /> 
<circle cx="35519.7" cy="18010.3" r="140.315" /> 
<circle cx="35519.7" cy="14010.3" r="140.315" /> 
<circle cx="24019.7" cy="25329.2" r="140.315" /> 
<circle cx="24019.7" cy="21329.2" r="140.315" /> 
<circle cx="31519.7" cy="25829.2" r="140.315" /> 
<circle cx="31519.7" cy="21829.2" r="140.315" /> 
<circle cx="35519.7" cy="28329.2" r="140.315" /> 
<circle cx="31519.7" cy="28329.2" r="140.315" /> 
<circle cx="28519.7" cy="25329.2" r="140.315" /> 
<circle cx="28519.7" cy="21329.2" r="140.315" /> 
<circle cx="25019.7" cy="31329.2" r="180.315" /> 
<circle cx="25519.7" cy="33329.2" r="180.315" /> 
<circle cx="26019.7" cy="31329.2" r="180.315" /> 
<circle cx="26519.7" cy="33329.2" r="180.315" /> 
<circle cx="27019.7" cy="31329.2" r="180.315" /> 
<circle cx="27519.7" cy="33329.2" r="180.315" /> 
<circle cx="28019.7" cy="31329.2" r="180.315" /> 
<circle cx="28519.7" cy="33329.2" r="180.315" /> 
<circle cx="29019.7" cy="31329.2" r="180.315" /> 
<circle cx="29519.7" cy="33329.2" r="180.315" /> 
<circle cx="30019.7" cy="31329.2" r="180.315" /> 
<circle cx="31019.7" cy="31323.2" r="180.315" /> 
<circle cx="32019.7" cy="31323.2" r="180.315" /> 
<circle cx="30519.7" cy="33329.2" r="180.315" /> 
<circle cx="31519.7" cy="33329.2" r="180.315" /> 
<circle cx="37519.7" cy="18010.3" r="140.315" /> 
<circle cx="37519.7" cy="14010.3" r="140.315" /> 
<circle cx="21019.7" cy="21829.2" r="280.315" /> 
<circle cx="21019.7" cy="23829.2" r="280.315" /> 
<circle cx="21019.7" cy="18329.2" r="280.315" /> 
<circle cx="21019.7" cy="16329.2" r="280.315" /> 
<circle cx="26519.7" cy="17510.3" r="140.315" /> 
<circle cx="26519.7" cy="15510.3" r="140.315" /> 
<circle cx="28019.7" cy="17510.3" r="140.315" /> 
<circle cx="28019.7" cy="15510.3" r="140.315" /> 
<circle cx="23619.7" cy="29110.3" r="140.315" /> 
<circle cx="23619.7" cy="31110.3" r="140.315" /> 
<circle cx="35419.7" cy="32510.3" r="140.315" /> 
<circle cx="35419.7" cy="30510.3" r="140.315" /> 
<circle cx="34519.7" cy="20510.3" r="140.315" /> 
<circle cx="34519.7" cy="19510.3" r="140.315" /> 
<circle cx="31519.7" cy="20510.3" r="140.315" /> 
<circle cx="31519.7" cy="19510.3" r="140.315" /> 
<circle cx="6019.69" cy="26510.3" r="140.315" /> 
<circle cx="6019.69" cy="22510.3" r="140.315" /> 
<circle cx="6019.69" cy="32510.3" r="140.315" /> 
<circle cx="6019.69" cy="28510.3" r="140.315" /> 
<circle cx="17019.7" cy="29510.3" r="140.315" /> 
<circle cx="17019.7" cy="33510.3" r="140.315" /> 
<circle cx="17019.7" cy="26510.3" r="140.315" /> 
<circle cx="17019.7" cy="22510.3" r="140.315" /> 
<circle cx="1519.69" cy="1510.31" r="580.315" /> 
<circle cx="44019.7" cy="1510.31" r="580.315" /> 
<circle cx="20269.7" cy="27776.1" r="137.795" /> 
<circle cx="20269.7" cy="29744.6" r="137.795" /> 
<circle cx="40269.7" cy="30744.6" r="137.795" /> 
<circle cx="40269.7" cy="28776.1" r="137.795" /> 
<circle cx="36519.7" cy="25010.3" r="140.315" /> 
<circle cx="36519.7" cy="26010.3" r="140.315" /> 
<circle cx="39269.7" cy="25010.3" r="140.315" /> 
<circle cx="39269.7" cy="26010.3" r="140.315" /> 
<circle cx="8769.69" cy="12510.3" r="230.315" /> 
<circle cx="1769.69" cy="12510.3" r="230.315" /> 
<circle cx="11769.7" cy="12510.3" r="230.315" /> 
<circle cx="18769.7" cy="12510.3" r="230.315" /> 
<circle cx="4269.69" cy="26510.3" r="275.591" /> 
<circle cx="4269.69" cy="21510.3" r="275.591" /> 
<circle cx="4269.69" cy="33510.3" r="275.591" /> 
<circle cx="4269.69" cy="28510.3" r="275.591" /> 
<circle cx="15269.7" cy="28510.3" r="275.591" /> 
<circle cx="15269.7" cy="33510.3" r="275.591" /> 
<circle cx="15269.7" cy="21510.3" r="275.591" /> 
<circle cx="15269.7" cy="26510.3" r="275.591" /> 
<circle cx="4543.31" cy="17510.3" r="177.165" /> 
<circle cx="7496.06" cy="17510.3" r="177.165" /> 
<circle cx="13043.3" cy="17510.3" r="177.165" /> 
<circle cx="15996.1" cy="17510.3" r="177.165" /> 
<circle cx="5019.69" cy="2760.31" r="140.315" /> 
<circle cx="7019.69" cy="2760.31" r="140.315" /> 
<circle cx="13519.7" cy="2760.31" r="140.315" /> 
<circle cx="15519.7" cy="2760.31" r="140.315" /> 
<circle cx="4543.31" cy="7260.31" r="177.165" /> 
<circle cx="7496.06" cy="7260.31" r="177.165" /> 
<circle cx="13043.3" cy="7260.31" r="177.165" /> 
<circle cx="15996.1" cy="7260.31" r="177.165" /> 
<circle cx="39019.7" cy="3010.31" r="280.315" /> 
<circle cx="39019.7" cy="5010.31" r="280.315" /> 
<circle cx="39019.7" cy="7010.31" r="280.315" /> 
<circle cx="30519.7" cy="27510.3" r="140.315" /> 
<circle cx="26519.7" cy="27510.3" r="140.315" /> 
<circle cx="30019.7" cy="29010.3" r="140.315" /> 
<circle cx="26019.7" cy="29010.3" r="140.315" /> 
</g> 
</svg>
