<?xml version="1.0" standalone="no"?>
 <!DOCTYPE svg PUBLIC "-//W3C//DTD SVG 1.1//EN" 
 "http://www.w3.org/Graphics/SVG/1.1/DTD/svg11.dtd"> 
<svg xmlns="http://www.w3.org/2000/svg" version="1.1" 
    width="6.10362cm" height="9.67232cm" viewBox="0 0 24030 38080 ">
<title>SVG Picture created as Fun_Amplifier-B_Cu.svg date 2014/08/28 14:52:29 </title>
  <desc>Picture generated by PCBNEW </desc>
<g style="fill:#000000; fill-opacity:1;stroke:#000000; stroke-opacity:1;
stroke-linecap:round; stroke-linejoin:round; "
 transform="translate(0 0) scale(1 1)">
</g>
<g style="fill:#000000; fill-opacity:0.0; 
stroke:#000000; stroke-width:39.3701; stroke-opacity:1; 
stroke-linecap:round; stroke-linejoin:round;">
<path d="M22519 38011
L1519 38011
" />
<path d="M24019 1511
L24019 36511
" />
<path d="M19 36511
L19 1511
" />
<path d="M22519.7 38011.9 A1500 1500 0.0 0 0 24019.7 36511.9 " />
<path d="M19.6854 36511.9 A1500 1500 0.0 0 0 1519.69 38011.9 " />
<path d="M1519 11
L22519 11
" />
<path d="M1519.69 11.8898 A1500 1500 0.0 0 0 19.6854 1511.89 " />
<path d="M24019.7 1511.89 A1500 1500 0.0 0 0 22519.7 11.8898 " />
</g>
<g style="fill:#000000; fill-opacity:1.0; 
stroke:#000000; stroke-width:39.3701; stroke-opacity:1; 
stroke-linecap:round; stroke-linejoin:round;">
<circle cx="1519.69" cy="1511.89" r="780.315" /> 
<polyline style="fill-rule:evenodd;"
points="14500,2992
14500,2031
13539,2031
13539,2992
14500,2992
" /> 
<circle cx="12019.7" cy="2511.89" r="480.315" /> 
<circle cx="10019.7" cy="2511.89" r="480.315" /> 
<circle cx="8519.69" cy="25511.9" r="330.315" /> 
<circle cx="8519.69" cy="19511.9" r="330.315" /> 
<circle cx="10019.7" cy="25511.9" r="330.315" /> 
<circle cx="10019.7" cy="19511.9" r="330.315" /> 
<circle cx="16519.7" cy="25011.9" r="280.315" /> 
<circle cx="16519.7" cy="21011.9" r="280.315" /> 
<circle cx="20019.7" cy="28511.9" r="280.315" /> 
<circle cx="16019.7" cy="28511.9" r="280.315" /> 
<circle cx="16819.7" cy="16911.9" r="280.315" /> 
<circle cx="16819.7" cy="12911.9" r="280.315" /> 
<circle cx="7019.69" cy="24511.9" r="280.315" /> 
<circle cx="7019.69" cy="20511.9" r="280.315" /> 
<circle cx="14519.7" cy="25011.9" r="280.315" /> 
<circle cx="14519.7" cy="21011.9" r="280.315" /> 
<circle cx="18519.7" cy="27511.9" r="280.315" /> 
<circle cx="14519.7" cy="27511.9" r="280.315" /> 
<circle cx="11519.7" cy="24511.9" r="280.315" /> 
<circle cx="11519.7" cy="20511.9" r="280.315" /> 
<circle cx="14519.7" cy="28511.9" r="330.315" /> 
<circle cx="8519.69" cy="28511.9" r="330.315" /> 
<circle cx="16019.7" cy="26511.9" r="330.315" /> 
<circle cx="10019.7" cy="26511.9" r="330.315" /> 
</g>
<g style="fill:#000000; fill-opacity:1.0; 
stroke:#000000; stroke-width:600; stroke-opacity:1; 
stroke-linecap:round; stroke-linejoin:round;">
<path d="M8019 30811
L8019 30211
" />
<path d="M8519 32811
L8519 32211
" />
<path d="M9019 30811
L9019 30211
" />
<path d="M9519 32811
L9519 32211
" />
<path d="M10019 30811
L10019 30211
" />
<path d="M10519 32811
L10519 32211
" />
<path d="M11019 30811
L11019 30211
" />
<path d="M11519 32811
L11519 32211
" />
<path d="M12019 30811
L12019 30211
" />
<path d="M12519 32811
L12519 32211
" />
<path d="M13019 30811
L13019 30211
" />
<path d="M14019 30805
L14019 30205
" />
<path d="M15019 30805
L15019 30205
" />
<path d="M13519 32811
L13519 32211
" />
<path d="M14519 32811
L14519 32211
" />
</g>
<g style="fill:#000000; fill-opacity:1.0; 
stroke:#000000; stroke-width:39.3701; stroke-opacity:1; 
stroke-linecap:round; stroke-linejoin:round;">
<circle cx="18019.7" cy="16911.9" r="280.315" /> 
<circle cx="18019.7" cy="12911.9" r="280.315" /> 
<polyline style="fill-rule:evenodd;"
points="19939,18392
20900,18392
20900,17431
19939,17431
19939,18392
" /> 
<circle cx="20419.7" cy="15911.9" r="480.315" /> 
<circle cx="20419.7" cy="13911.9" r="480.315" /> 
<polyline style="fill-rule:evenodd;"
points="4500,20531
3539,20531
3539,21492
4500,21492
4500,20531
" /> 
<circle cx="4019.69" cy="23011.9" r="480.315" /> 
<polyline style="fill-rule:evenodd;"
points="3539,17992
4500,17992
4500,17031
3539,17031
3539,17992
" /> 
<circle cx="4019.69" cy="15511.9" r="480.315" /> 
<circle cx="1519.69" cy="36511.9" r="780.315" /> 
<circle cx="22519.7" cy="36511.9" r="780.315" /> 
<circle cx="22519.7" cy="1511.89" r="780.315" /> 
<polyline style="fill-rule:evenodd;"
points="19350,2181
18689,2181
18689,2842
19350,2842
19350,2181
" /> 
<circle cx="19019.7" cy="4511.89" r="330.315" /> 
<polyline style="fill-rule:evenodd;"
points="4689,4842
5350,4842
5350,4181
4689,4181
4689,4842
" /> 
<circle cx="5019.69" cy="2511.89" r="330.315" /> 
<polyline style="fill-rule:evenodd;"
points="6350,9842
6350,9181
5689,9181
5689,9842
6350,9842
" /> 
<circle cx="4019.69" cy="9511.89" r="330.315" /> 
<polyline style="fill-rule:evenodd;"
points="20350,9842
20350,9181
19689,9181
19689,9842
20350,9842
" /> 
<circle cx="18019.7" cy="9511.89" r="330.315" /> 
<circle cx="18519.7" cy="24011.9" r="255.315" /> 
<circle cx="18519.7" cy="26011.9" r="255.315" /> 
<circle cx="10519.7" cy="17011.9" r="255.315" /> 
<circle cx="10519.7" cy="15011.9" r="255.315" /> 
<circle cx="12019.7" cy="17011.9" r="255.315" /> 
<circle cx="12019.7" cy="15011.9" r="255.315" /> 
<circle cx="10019.7" cy="11011.9" r="255.315" /> 
<circle cx="8019.69" cy="11011.9" r="255.315" /> 
<circle cx="16019.7" cy="11011.9" r="255.315" /> 
<circle cx="14019.7" cy="11011.9" r="255.315" /> 
<circle cx="20019.7" cy="24011.9" r="255.315" /> 
<circle cx="20019.7" cy="26011.9" r="255.315" /> 
<polyline style="fill-rule:evenodd;"
points="16239,19792
16800,19792
16800,19231
16239,19231
16239,19792
" /> 
<circle cx="16519.7" cy="18511.9" r="280.315" /> 
<polyline style="fill-rule:evenodd;"
points="13739,19792
14300,19792
14300,19231
13739,19231
13739,19792
" /> 
<circle cx="14019.7" cy="18511.9" r="280.315" /> 
</g>
<g style="fill:#000000; fill-opacity:1.0; 
stroke:#000000; stroke-width:393.701; stroke-opacity:1; 
stroke-linecap:round; stroke-linejoin:round;">
<path d="M14019 18511
L14519 18511
" />
<path d="M15219 18511
L15619 18111
" />
<path d="M15219 18511
L14519 18511
" />
<path d="M5019 4511
L8519 4511
" />
<path d="M8519 4511
L12019 8011
" />
<path d="M19019 4511
L15519 4511
" />
<path d="M15519 4511
L12019 8011
" />
<path d="M18019 9511
L18019 8511
" />
<path d="M17519 8011
L12019 8011
" />
<path d="M18019 8511
L17519 8011
" />
<path d="M6019 9511
L6019 8511
" />
<path d="M6519 8011
L12019 8011
" />
<path d="M6019 8511
L6519 8011
" />
<path d="M10019 11011
L10019 9511
" />
<path d="M10019 9511
L12019 7511
" />
<path d="M14019 11011
L14019 9511
" />
<path d="M14019 9511
L12019 7511
" />
<path d="M12019 15011
L12019 12511
" />
<path d="M10519 15011
L10519 13511
" />
<path d="M10519 13511
L12019 12011
" />
<path d="M2619 20011
L2619 21611
" />
<path d="M2619 21611
L4019 23011
" />
<path d="M4019 15511
L4019 13311
" />
<path d="M4019 13311
L5019 12311
" />
<path d="M5019 12311
L10819 12311
" />
<path d="M10819 12311
L12019 11111
" />
<path d="M13219 12311
L16819 12311
" />
<path d="M13219 12311
L12019 11111
" />
</g>
<g style="fill:#000000; fill-opacity:1.0; 
stroke:#000000; stroke-width:1574.8; stroke-opacity:1; 
stroke-linecap:round; stroke-linejoin:round;">
<path d="M12019 7511
L12019 2511
" />
</g>
<g style="fill:#000000; fill-opacity:1.0; 
stroke:#000000; stroke-width:393.701; stroke-opacity:1; 
stroke-linecap:round; stroke-linejoin:round;">
<path d="M18019 12911
L18019 12311
" />
<path d="M16819 12911
L16819 12311
" />
<path d="M20419 13911
L20419 13711
" />
<path d="M19019 12311
L18019 12311
" />
<path d="M18019 12311
L16819 12311
" />
<path d="M20419 13711
L19019 12311
" />
<path d="M4769 12011
L10769 12011
" />
<path d="M10769 12011
L12019 10761
" />
<path d="M12019 10761
L12019 10761
" />
<path d="M3719 12011
L4769 12011
" />
<path d="M2619 13111
L3719 12011
" />
<path d="M2619 20111
L2619 20011
" />
<path d="M2619 20011
L2619 13111
" />
<path d="M14519 32511
L14519 33511
" />
<path d="M12519 31011
L13019 30511
" />
<path d="M12519 32511
L12519 31011
" />
<path d="M12519 31011
L12019 30511
" />
<path d="M12519 33511
L12519 32511
" />
<path d="M10519 33011
L10519 32511
" />
<path d="M11019 33511
L10519 33011
" />
<path d="M14519 33511
L12519 33511
" />
<path d="M12519 33511
L11019 33511
" />
<path d="M13019 24111
L13019 24511
" />
<path d="M10019 29511
L11019 28511
" />
<path d="M11019 28511
L11019 26511
" />
<path d="M11019 26511
L13019 24511
" />
<path d="M10019 29511
L10019 30511
" />
<path d="M10519 32511
L10519 32011
" />
<path d="M10019 31511
L10019 30511
" />
<path d="M10519 32011
L10019 31511
" />
<path d="M13019 24111
L13019 14011
" />
<path d="M13019 24111
L13019 24011
" />
<path d="M12019 11511
L12019 11261
" />
<path d="M12019 11261
L12019 10761
" />
<path d="M11519 8011
L12019 7511
" />
</g>
<g style="fill:#000000; fill-opacity:1.0; 
stroke:#000000; stroke-width:1574.8; stroke-opacity:1; 
stroke-linecap:round; stroke-linejoin:round;">
<path d="M12019 12511
L12019 8011
" />
<path d="M12019 8011
L12019 7511
" />
</g>
<g style="fill:#000000; fill-opacity:1.0; 
stroke:#000000; stroke-width:393.701; stroke-opacity:1; 
stroke-linecap:round; stroke-linejoin:round;">
<path d="M13019 14011
L12019 13011
" />
<path d="M16519 18511
L16019 18511
" />
<path d="M15619 18111
L15619 15611
" />
<path d="M15619 15611
L12019 12011
" />
<path d="M12019 12011
L12019 12011
" />
<path d="M12019 13011
L12019 12511
" />
<path d="M12019 12511
L12019 11761
" />
<path d="M12019 11761
L12019 11511
" />
<path d="M12019 12011
L12019 11511
" />
<path d="M16019 18511
L15619 18111
" />
</g>
<g style="fill:#000000; fill-opacity:1.0; 
stroke:#000000; stroke-width:157.48; stroke-opacity:1; 
stroke-linecap:round; stroke-linejoin:round;">
<path d="M12019 17011
L12019 20011
" />
<path d="M12019 20011
L11519 20511
" />
</g>
<g style="fill:#000000; fill-opacity:1.0; 
stroke:#000000; stroke-width:393.701; stroke-opacity:1; 
stroke-linecap:round; stroke-linejoin:round;">
<path d="M8519 19511
L4519 19511
" />
<path d="M4019 20011
L4019 21011
" />
<path d="M4519 19511
L4019 20011
" />
</g>
<g style="fill:#000000; fill-opacity:1.0; 
stroke:#000000; stroke-width:157.48; stroke-opacity:1; 
stroke-linecap:round; stroke-linejoin:round;">
<path d="M7019 20511
L10519 20511
" />
<path d="M10519 18011
L10519 17011
" />
<path d="M11019 18511
L10519 18011
" />
<path d="M11019 20011
L11019 18511
" />
<path d="M10519 20511
L11019 20011
" />
</g>
<g style="fill:#000000; fill-opacity:1.0; 
stroke:#000000; stroke-width:393.701; stroke-opacity:1; 
stroke-linecap:round; stroke-linejoin:round;">
<path d="M8519 28511
L8019 29011
" />
<path d="M8019 29011
L8019 30511
" />
<path d="M7019 24511
L7519 24511
" />
<path d="M7519 24511
L8519 25511
" />
<path d="M8519 28511
L8519 25511
" />
</g>
<g style="fill:#000000; fill-opacity:1.0; 
stroke:#000000; stroke-width:157.48; stroke-opacity:1; 
stroke-linecap:round; stroke-linejoin:round;">
<path d="M16519 21011
L16519 19511
" />
<path d="M13519 32511
L13519 29011
" />
<path d="M14019 28511
L14519 28511
" />
<path d="M13519 29011
L14019 28511
" />
<path d="M14519 28511
L15019 28511
" />
<path d="M17019 25511
L16519 25011
" />
<path d="M17019 27011
L17019 25511
" />
<path d="M16519 27511
L17019 27011
" />
<path d="M16019 27511
L16519 27511
" />
<path d="M15019 28511
L16019 27511
" />
<path d="M14911 28511
L14519 28511
" />
<path d="M14019 30505
L14019 30011
" />
<path d="M15019 29511
L16019 28511
" />
<path d="M14519 29511
L15019 29511
" />
<path d="M14019 30011
L14519 29511
" />
<path d="M15885 28645
L16019 28511
" />
<path d="M18519 26011
L18019 26011
" />
<path d="M16819 17811
L16819 16911
" />
<path d="M17519 18511
L16819 17811
" />
<path d="M17519 25511
L17519 18511
" />
<path d="M18019 26011
L17519 25511
" />
<path d="M18519 27511
L18519 26011
" />
<path d="M18519 24011
L19019 23511
" />
<path d="M19519 16811
L20419 15911
" />
<path d="M19519 23011
L19519 16811
" />
<path d="M19019 23511
L19519 23011
" />
</g>
<g style="fill:#000000; fill-opacity:1.0; 
stroke:#000000; stroke-width:393.701; stroke-opacity:1; 
stroke-linecap:round; stroke-linejoin:round;">
<path d="M9019 30511
L9019 29511
" />
<path d="M10019 28511
L10019 26511
" />
<path d="M9019 29511
L10019 28511
" />
<path d="M11519 24511
L11019 24511
" />
<path d="M11019 24511
L10019 25511
" />
<path d="M10019 26511
L10019 25511
" />
</g>
<g style="fill:#000000; fill-opacity:1.0; 
stroke:#000000; stroke-width:157.48; stroke-opacity:1; 
stroke-linecap:round; stroke-linejoin:round;">
<path d="M14519 21011
L14019 20511
" />
<path d="M14019 20511
L14019 19511
" />
<path d="M11019 30511
L11019 29511
" />
<path d="M12019 26511
L16019 26511
" />
<path d="M11519 27011
L12019 26511
" />
<path d="M11519 29011
L11519 27011
" />
<path d="M11019 29511
L11519 29011
" />
<path d="M14519 25011
L15519 25011
" />
<path d="M16019 25511
L16019 26511
" />
<path d="M15519 25011
L16019 25511
" />
<path d="M11519 32511
L11519 29511
" />
<path d="M12519 27511
L14519 27511
" />
<path d="M12019 28011
L12519 27511
" />
<path d="M12019 29011
L12019 28011
" />
<path d="M11519 29511
L12019 29011
" />
<path d="M20019 26011
L20019 25511
" />
<path d="M18019 24511
L18019 16911
" />
<path d="M18519 25011
L18019 24511
" />
<path d="M19519 25011
L18519 25011
" />
<path d="M20019 25511
L19519 25011
" />
<path d="M20019 28511
L20019 26011
" />
<path d="M20019 24011
L20519 23511
" />
<path d="M20519 18011
L20419 17911
" />
<path d="M20519 23511
L20519 18011
" />
</g>
<g style="fill:#000000; fill-opacity:1.0; 
stroke:#000000; stroke-width:393.701; stroke-opacity:1; 
stroke-linecap:round; stroke-linejoin:round;">
<path d="M10019 19511
L10019 18511
" />
<path d="M9019 17511
L4019 17511
" />
<path d="M10019 18511
L9019 17511
" />
<path d="M8519 32511
L8519 34011
" />
<path d="M17019 34011
L17019 30011
" />
<path d="M16519 34511
L17019 34011
" />
<path d="M9019 34511
L16519 34511
" />
<path d="M8519 34011
L9019 34511
" />
<path d="M16019 11011
L18519 11011
" />
<path d="M18519 11011
L20019 9511
" />
<path d="M22269 12511
L22269 11761
" />
<path d="M17519 29511
L20269 29511
" />
<path d="M20269 29511
L22269 27511
" />
<path d="M22269 27511
L22269 12511
" />
<path d="M22269 11761
L20019 9511
" />
<path d="M20019 9511
L20019 3511
" />
<path d="M20019 3511
L19019 2511
" />
<path d="M19019 2511
L17519 2511
" />
<path d="M14019 2511
L17519 2511
" />
<path d="M17519 29511
L17019 30011
" />
<path d="M17019 30011
L16519 30511
" />
<path d="M15025 30511
L15019 30505
" />
<path d="M16519 30511
L15025 30511
" />
<path d="M8019 11011
L5519 11011
" />
<path d="M5519 11011
L4019 9511
" />
<path d="M1819 12311
L1819 11711
" />
<path d="M9519 32511
L9519 31811
" />
<path d="M9219 31511
L9519 31811
" />
<path d="M4019 31511
L9219 31511
" />
<path d="M1819 29311
L4019 31511
" />
<path d="M1819 12311
L1819 29311
" />
<path d="M1819 11711
L4019 9511
" />
<path d="M4019 9511
L4019 3511
" />
<path d="M4019 3511
L5019 2511
" />
<path d="M5019 2511
L10019 2511
" />
</g>
<g style="fill:#FFFFFF; fill-opacity:1.0; 
stroke:#FFFFFF; stroke-width:39.3701; stroke-opacity:1; 
stroke-linecap:round; stroke-linejoin:round;">
<circle cx="1519.69" cy="1511.89" r="580.315" /> 
<circle cx="14019.7" cy="2511.89" r="280.315" /> 
<circle cx="12019.7" cy="2511.89" r="280.315" /> 
<circle cx="10019.7" cy="2511.89" r="280.315" /> 
<circle cx="8519.69" cy="25511.9" r="205.315" /> 
<circle cx="8519.69" cy="19511.9" r="205.315" /> 
<circle cx="10019.7" cy="25511.9" r="205.315" /> 
<circle cx="10019.7" cy="19511.9" r="205.315" /> 
<circle cx="16519.7" cy="25011.9" r="140.315" /> 
<circle cx="16519.7" cy="21011.9" r="140.315" /> 
<circle cx="20019.7" cy="28511.9" r="140.315" /> 
<circle cx="16019.7" cy="28511.9" r="140.315" /> 
<circle cx="16819.7" cy="16911.9" r="140.315" /> 
<circle cx="16819.7" cy="12911.9" r="140.315" /> 
<circle cx="7019.69" cy="24511.9" r="140.315" /> 
<circle cx="7019.69" cy="20511.9" r="140.315" /> 
<circle cx="14519.7" cy="25011.9" r="140.315" /> 
<circle cx="14519.7" cy="21011.9" r="140.315" /> 
<circle cx="18519.7" cy="27511.9" r="140.315" /> 
<circle cx="14519.7" cy="27511.9" r="140.315" /> 
<circle cx="11519.7" cy="24511.9" r="140.315" /> 
<circle cx="11519.7" cy="20511.9" r="140.315" /> 
<circle cx="14519.7" cy="28511.9" r="205.315" /> 
<circle cx="8519.69" cy="28511.9" r="205.315" /> 
<circle cx="16019.7" cy="26511.9" r="205.315" /> 
<circle cx="10019.7" cy="26511.9" r="205.315" /> 
<circle cx="8019.69" cy="30511.9" r="180.315" /> 
<circle cx="8519.69" cy="32511.9" r="180.315" /> 
<circle cx="9019.69" cy="30511.9" r="180.315" /> 
<circle cx="9519.69" cy="32511.9" r="180.315" /> 
<circle cx="10019.7" cy="30511.9" r="180.315" /> 
<circle cx="10519.7" cy="32511.9" r="180.315" /> 
<circle cx="11019.7" cy="30511.9" r="180.315" /> 
<circle cx="11519.7" cy="32511.9" r="180.315" /> 
<circle cx="12019.7" cy="30511.9" r="180.315" /> 
<circle cx="12519.7" cy="32511.9" r="180.315" /> 
<circle cx="13019.7" cy="30511.9" r="180.315" /> 
<circle cx="14019.7" cy="30505.9" r="180.315" /> 
<circle cx="15019.7" cy="30505.9" r="180.315" /> 
<circle cx="13519.7" cy="32511.9" r="180.315" /> 
<circle cx="14519.7" cy="32511.9" r="180.315" /> 
<circle cx="18019.7" cy="16911.9" r="140.315" /> 
<circle cx="18019.7" cy="12911.9" r="140.315" /> 
<circle cx="20419.7" cy="17911.9" r="280.315" /> 
<circle cx="20419.7" cy="15911.9" r="280.315" /> 
<circle cx="20419.7" cy="13911.9" r="280.315" /> 
<circle cx="4019.69" cy="21011.9" r="280.315" /> 
<circle cx="4019.69" cy="23011.9" r="280.315" /> 
<circle cx="4019.69" cy="17511.9" r="280.315" /> 
<circle cx="4019.69" cy="15511.9" r="280.315" /> 
<circle cx="1519.69" cy="36511.9" r="580.315" /> 
<circle cx="22519.7" cy="36511.9" r="580.315" /> 
<circle cx="22519.7" cy="1511.89" r="580.315" /> 
<circle cx="19019.7" cy="2511.89" r="180.315" /> 
<circle cx="19019.7" cy="4511.89" r="180.315" /> 
<circle cx="5019.69" cy="4511.89" r="180.315" /> 
<circle cx="5019.69" cy="2511.89" r="180.315" /> 
<circle cx="6019.69" cy="9511.89" r="180.315" /> 
<circle cx="4019.69" cy="9511.89" r="180.315" /> 
<circle cx="20019.7" cy="9511.89" r="180.315" /> 
<circle cx="18019.7" cy="9511.89" r="180.315" /> 
<circle cx="18519.7" cy="24011.9" r="140.315" /> 
<circle cx="18519.7" cy="26011.9" r="140.315" /> 
<circle cx="10519.7" cy="17011.9" r="140.315" /> 
<circle cx="10519.7" cy="15011.9" r="140.315" /> 
<circle cx="12019.7" cy="17011.9" r="140.315" /> 
<circle cx="12019.7" cy="15011.9" r="140.315" /> 
<circle cx="10019.7" cy="11011.9" r="140.315" /> 
<circle cx="8019.69" cy="11011.9" r="140.315" /> 
<circle cx="16019.7" cy="11011.9" r="140.315" /> 
<circle cx="14019.7" cy="11011.9" r="140.315" /> 
<circle cx="20019.7" cy="24011.9" r="140.315" /> 
<circle cx="20019.7" cy="26011.9" r="140.315" /> 
<circle cx="16519.7" cy="19511.9" r="140.315" /> 
<circle cx="16519.7" cy="18511.9" r="140.315" /> 
<circle cx="14019.7" cy="19511.9" r="140.315" /> 
<circle cx="14019.7" cy="18511.9" r="140.315" /> 
</g> 
</svg>
