<?xml version="1.0" standalone="no"?>
 <!DOCTYPE svg PUBLIC "-//W3C//DTD SVG 1.1//EN" 
 "http://www.w3.org/Graphics/SVG/1.1/DTD/svg11.dtd"> 
<svg xmlns="http://www.w3.org/2000/svg" version="1.1" 
    width="5.59562cm" height="9.78662cm" viewBox="0 0 22030 38530 ">
<title>SVG Picture created as Fun_Amplifier-B_Cu.svg date 2014/08/15 17:52:35 </title>
  <desc>Picture generated by PCBNEW </desc>
<g style="fill:#000000; fill-opacity:1;stroke:#000000; stroke-opacity:1;
stroke-linecap:round; stroke-linejoin:round; "
 transform="translate(0 0) scale(1 1)">
</g>
<g style="fill:#000000; fill-opacity:0.0; 
stroke:#000000; stroke-width:39.3701; stroke-opacity:1; 
stroke-linecap:round; stroke-linejoin:round;">
<path d="M19 38510
L19 38010
" />
<path d="M22019 38510
L19 38510
" />
<path d="M22019 38010
L22019 38510
" />
<path d="M19 10
L19 38010
" />
<path d="M22019 10
L19 10
" />
<path d="M22019 38010
L22019 10
" />
</g>
<g style="fill:#000000; fill-opacity:1.0; 
stroke:#000000; stroke-width:39.3701; stroke-opacity:1; 
stroke-linecap:round; stroke-linejoin:round;">
<polyline style="fill-rule:evenodd;"
points="13500,2490
13500,1529
12539,1529
12539,2490
13500,2490
" /> 
<circle cx="11019.7" cy="2010.31" r="480.315" /> 
<circle cx="9019.69" cy="2010.31" r="480.315" /> 
<polyline style="fill-rule:evenodd;"
points="2539,20990
3500,20990
3500,20029
2539,20029
2539,20990
" /> 
<circle cx="3019.69" cy="18510.3" r="480.315" /> 
<polyline style="fill-rule:evenodd;"
points="19750,18029
18789,18029
18789,18990
19750,18990
19750,18029
" /> 
<circle cx="19269.7" cy="20510.3" r="480.315" /> 
<circle cx="7519.69" cy="29010.3" r="330.315" /> 
<circle cx="7519.69" cy="23010.3" r="330.315" /> 
<circle cx="9019.69" cy="29010.3" r="330.315" /> 
<circle cx="9019.69" cy="23010.3" r="330.315" /> 
<circle cx="15519.7" cy="28510.3" r="280.315" /> 
<circle cx="15519.7" cy="24510.3" r="280.315" /> 
<circle cx="19019.7" cy="32010.3" r="280.315" /> 
<circle cx="15019.7" cy="32010.3" r="280.315" /> 
<circle cx="17519.7" cy="28510.3" r="280.315" /> 
<circle cx="17519.7" cy="24510.3" r="280.315" /> 
<circle cx="6019.69" cy="28010.3" r="280.315" /> 
<circle cx="6019.69" cy="24010.3" r="280.315" /> 
<circle cx="13519.7" cy="28510.3" r="280.315" /> 
<circle cx="13519.7" cy="24510.3" r="280.315" /> 
<circle cx="17519.7" cy="31010.3" r="280.315" /> 
<circle cx="13519.7" cy="31010.3" r="280.315" /> 
<circle cx="10519.7" cy="28010.3" r="280.315" /> 
<circle cx="10519.7" cy="24010.3" r="280.315" /> 
<polyline style="fill-rule:evenodd;"
points="5764,23265
6275,23265
6275,22754
5764,22754
5764,23265
" /> 
<circle cx="6019.69" cy="17010.3" r="255.315" /> 
<polyline style="fill-rule:evenodd;"
points="10264,23265
10775,23265
10775,22754
10264,22754
10264,23265
" /> 
<circle cx="10519.7" cy="17010.3" r="255.315" /> 
<polyline style="fill-rule:evenodd;"
points="9275,15015
9275,14504
8764,14504
8764,15015
9275,15015
" /> 
<circle cx="3019.69" cy="14760.3" r="255.315" /> 
<polyline style="fill-rule:evenodd;"
points="19275,15015
19275,14504
18764,14504
18764,15015
19275,15015
" /> 
<circle cx="13019.7" cy="14760.3" r="255.315" /> 
<polyline style="fill-rule:evenodd;"
points="9350,11590
9350,10929
8689,10929
8689,11590
9350,11590
" /> 
<circle cx="7019.69" cy="11260.3" r="330.315" /> 
<polyline style="fill-rule:evenodd;"
points="15350,11590
15350,10929
14689,10929
14689,11590
15350,11590
" /> 
<circle cx="13019.7" cy="11260.3" r="330.315" /> 
<polyline style="fill-rule:evenodd;"
points="15350,6840
15350,6179
14689,6179
14689,6840
15350,6840
" /> 
<circle cx="13019.7" cy="6510.31" r="330.315" /> 
<polyline style="fill-rule:evenodd;"
points="9350,6840
9350,6179
8689,6179
8689,6840
9350,6840
" /> 
<circle cx="7019.69" cy="6510.31" r="330.315" /> 
<circle cx="13519.7" cy="32010.3" r="330.315" /> 
<circle cx="7519.69" cy="32010.3" r="330.315" /> 
<circle cx="15019.7" cy="30010.3" r="330.315" /> 
<circle cx="9019.69" cy="30010.3" r="330.315" /> 
<polyline style="fill-rule:evenodd;"
points="15264,23265
15775,23265
15775,22754
15264,22754
15264,23265
" /> 
<circle cx="15519.7" cy="22010.3" r="255.315" /> 
<polyline style="fill-rule:evenodd;"
points="13264,23265
13775,23265
13775,22754
13264,22754
13264,23265
" /> 
<circle cx="13519.7" cy="22010.3" r="255.315" /> 
<polyline style="fill-rule:evenodd;"
points="19525,27254
19014,27254
19014,27765
19525,27765
19525,27254
" /> 
<circle cx="19269.7" cy="28510.3" r="255.315" /> 
</g>
<g style="fill:#000000; fill-opacity:1.0; 
stroke:#000000; stroke-width:600; stroke-opacity:1; 
stroke-linecap:round; stroke-linejoin:round;">
<path d="M7019 34310
L7019 33710
" />
<path d="M7519 36310
L7519 35710
" />
<path d="M8019 34310
L8019 33710
" />
<path d="M8519 36310
L8519 35710
" />
<path d="M9019 34310
L9019 33710
" />
<path d="M9519 36310
L9519 35710
" />
<path d="M10019 34310
L10019 33710
" />
<path d="M10519 36310
L10519 35710
" />
<path d="M11019 34310
L11019 33710
" />
<path d="M11519 36310
L11519 35710
" />
<path d="M12019 34310
L12019 33710
" />
<path d="M13019 34304
L13019 33704
" />
<path d="M14019 34304
L14019 33704
" />
<path d="M12519 36310
L12519 35710
" />
<path d="M13519 36310
L13519 35710
" />
</g>
<g style="fill:#000000; fill-opacity:1.0; 
stroke:#000000; stroke-width:393.701; stroke-opacity:1; 
stroke-linecap:round; stroke-linejoin:round;">
<path d="M13519 36010
L13519 37010
" />
<path d="M11519 34510
L12019 34010
" />
<path d="M11519 36010
L11519 34510
" />
<path d="M11519 34510
L11019 34010
" />
<path d="M11519 37010
L11519 36010
" />
<path d="M9519 36510
L9519 36010
" />
<path d="M10019 37010
L9519 36510
" />
<path d="M13519 37010
L11519 37010
" />
<path d="M11519 37010
L10019 37010
" />
<path d="M12019 27610
L12019 28010
" />
<path d="M9019 33010
L10019 32010
" />
<path d="M10019 32010
L10019 30010
" />
<path d="M10019 30010
L12019 28010
" />
<path d="M9019 33010
L9019 34010
" />
<path d="M9519 36010
L9519 35510
" />
<path d="M9019 35010
L9019 34010
" />
<path d="M9519 35510
L9019 35010
" />
</g>
<g style="fill:#000000; fill-opacity:1.0; 
stroke:#000000; stroke-width:1574.8; stroke-opacity:1; 
stroke-linecap:round; stroke-linejoin:round;">
<path d="M11019 11260
L11019 2010
" />
<path d="M11019 15510
L11019 11260
" />
</g>
<g style="fill:#000000; fill-opacity:1.0; 
stroke:#000000; stroke-width:393.701; stroke-opacity:1; 
stroke-linecap:round; stroke-linejoin:round;">
<path d="M19269 18510
L19269 17510
" />
<path d="M12019 14760
L11019 14760
" />
<path d="M13019 15760
L12019 14760
" />
<path d="M17519 15760
L13019 15760
" />
<path d="M19269 17510
L17519 15760
" />
<path d="M14619 21610
L14619 19110
" />
<path d="M14619 19110
L11019 15510
" />
<path d="M11019 15510
L11019 15510
" />
<path d="M12019 27610
L12019 17510
" />
<path d="M11019 16510
L11019 15260
" />
<path d="M12019 17510
L11019 16510
" />
<path d="M11019 15260
L11019 15010
" />
<path d="M10519 17010
L10519 16010
" />
<path d="M10519 16010
L11019 15510
" />
<path d="M11019 15510
L11019 15010
" />
<path d="M6019 17010
L6019 16760
" />
<path d="M6019 16760
L6769 16010
" />
<path d="M6769 16010
L10019 16010
" />
<path d="M10019 16010
L11019 15010
" />
<path d="M3019 18510
L3019 16260
" />
<path d="M9769 15510
L11019 14260
" />
<path d="M3769 15510
L9769 15510
" />
<path d="M3019 16260
L3769 15510
" />
<path d="M11019 15010
L11019 14760
" />
<path d="M11019 14760
L11019 14260
" />
<path d="M11019 14260
L11019 11260
" />
<path d="M13019 14760
L13019 13260
" />
<path d="M13019 13260
L11019 11260
" />
<path d="M9019 14760
L9019 13260
" />
<path d="M9019 13260
L11019 11260
" />
<path d="M13019 11260
L11019 11260
" />
<path d="M9019 11260
L11019 11260
" />
<path d="M13019 6510
L13019 9010
" />
<path d="M13019 9010
L11019 11010
" />
<path d="M9019 6510
L9019 9010
" />
<path d="M9019 9010
L11019 11010
" />
<path d="M11019 2010
L11019 11010
" />
<path d="M11019 11010
L11019 11260
" />
<path d="M17519 24510
L17519 19310
" />
<path d="M18319 18510
L19269 18510
" />
<path d="M17519 19310
L18319 18510
" />
<path d="M15519 22010
L15019 22010
" />
<path d="M14219 22010
L14619 21610
" />
<path d="M14219 22010
L13519 22010
" />
<path d="M15019 22010
L14619 21610
" />
<path d="M12019 27610
L12019 27510
" />
</g>
<g style="fill:#000000; fill-opacity:1.0; 
stroke:#000000; stroke-width:157.48; stroke-opacity:1; 
stroke-linecap:round; stroke-linejoin:round;">
<path d="M17519 28510
L19269 28510
" />
<path d="M17519 28510
L17519 31010
" />
<path d="M19019 32010
L19019 31260
" />
<path d="M18769 31010
L17519 31010
" />
<path d="M19019 31260
L18769 31010
" />
<path d="M10519 24010
L10519 23010
" />
</g>
<g style="fill:#000000; fill-opacity:1.0; 
stroke:#000000; stroke-width:393.701; stroke-opacity:1; 
stroke-linecap:round; stroke-linejoin:round;">
<path d="M8019 34010
L8019 33010
" />
<path d="M9019 32010
L9019 30010
" />
<path d="M8019 33010
L9019 32010
" />
<path d="M10519 28010
L10019 28010
" />
<path d="M10019 28010
L9019 29010
" />
<path d="M9019 30010
L9019 29010
" />
</g>
<g style="fill:#000000; fill-opacity:1.0; 
stroke:#000000; stroke-width:157.48; stroke-opacity:1; 
stroke-linecap:round; stroke-linejoin:round;">
<path d="M13519 24510
L13519 23010
" />
<path d="M10019 34010
L10019 33010
" />
<path d="M11019 30010
L15019 30010
" />
<path d="M10519 30510
L11019 30010
" />
<path d="M10519 32510
L10519 30510
" />
<path d="M10019 33010
L10519 32510
" />
<path d="M13519 28510
L14519 28510
" />
<path d="M15019 29010
L15019 30010
" />
<path d="M14519 28510
L15019 29010
" />
<path d="M10519 36010
L10519 33010
" />
<path d="M11519 31010
L13519 31010
" />
<path d="M11019 31510
L11519 31010
" />
<path d="M11019 32510
L11019 31510
" />
<path d="M10519 33010
L11019 32510
" />
</g>
<g style="fill:#000000; fill-opacity:1.0; 
stroke:#000000; stroke-width:393.701; stroke-opacity:1; 
stroke-linecap:round; stroke-linejoin:round;">
<path d="M3019 20510
L7919 20510
" />
<path d="M9019 21610
L9019 23010
" />
<path d="M7919 20510
L9019 21610
" />
<path d="M7519 23010
L7519 21710
" />
<path d="M3719 21210
L3019 20510
" />
<path d="M7019 21210
L3719 21210
" />
<path d="M7519 21710
L7019 21210
" />
</g>
<g style="fill:#000000; fill-opacity:1.0; 
stroke:#000000; stroke-width:157.48; stroke-opacity:1; 
stroke-linecap:round; stroke-linejoin:round;">
<path d="M19269 27510
L19269 20510
" />
<path d="M15519 24510
L15519 23010
" />
<path d="M6019 24010
L6019 23010
" />
</g>
<g style="fill:#000000; fill-opacity:1.0; 
stroke:#000000; stroke-width:393.701; stroke-opacity:1; 
stroke-linecap:round; stroke-linejoin:round;">
<path d="M7519 32010
L7019 32510
" />
<path d="M7019 32510
L7019 34010
" />
<path d="M6019 28010
L6519 28010
" />
<path d="M6519 28010
L7519 29010
" />
<path d="M7519 32010
L7519 29010
" />
</g>
<g style="fill:#000000; fill-opacity:1.0; 
stroke:#000000; stroke-width:157.48; stroke-opacity:1; 
stroke-linecap:round; stroke-linejoin:round;">
<path d="M12519 36010
L12519 32510
" />
<path d="M13019 32010
L13519 32010
" />
<path d="M12519 32510
L13019 32010
" />
<path d="M13519 32010
L14019 32010
" />
<path d="M16019 29010
L15519 28510
" />
<path d="M16019 30510
L16019 29010
" />
<path d="M15519 31010
L16019 30510
" />
<path d="M15019 31010
L15519 31010
" />
<path d="M14019 32010
L15019 31010
" />
<path d="M13911 32010
L13519 32010
" />
<path d="M13019 34004
L13019 33510
" />
<path d="M14019 33010
L15019 32010
" />
<path d="M13519 33010
L14019 33010
" />
<path d="M13019 33510
L13519 33010
" />
<path d="M14885 32144
L15019 32010
" />
</g>
<g style="fill:#000000; fill-opacity:1.0; 
stroke:#000000; stroke-width:393.701; stroke-opacity:1; 
stroke-linecap:round; stroke-linejoin:round;">
<path d="M16519 33010
L15519 34010
" />
<path d="M14025 34010
L14019 34004
" />
<path d="M15519 34010
L14025 34010
" />
<path d="M8519 37760
L7769 37760
" />
<path d="M7519 37510
L7519 36010
" />
<path d="M7769 37760
L7519 37510
" />
<path d="M16225 34007
L16225 33304
" />
<path d="M20019 14760
L19019 14760
" />
<path d="M21269 16010
L20019 14760
" />
<path d="M21269 31010
L21269 16010
" />
<path d="M19269 33010
L21269 31010
" />
<path d="M16519 33010
L19269 33010
" />
<path d="M16225 33304
L16519 33010
" />
<path d="M15019 11260
L16769 11260
" />
<path d="M16769 11260
L19019 13510
" />
<path d="M19019 13510
L19019 14760
" />
<path d="M15019 6510
L15019 11260
" />
<path d="M13019 2010
L14269 2010
" />
<path d="M15019 2760
L15019 6510
" />
<path d="M14269 2010
L15019 2760
" />
<path d="M16225 34007
L16225 37304
" />
<path d="M16225 37304
L15769 37760
" />
<path d="M15769 37760
L8519 37760
" />
<path d="M8519 37760
L8269 37760
" />
<path d="M6019 35010
L8019 35010
" />
<path d="M3519 32510
L6019 35010
" />
<path d="M3519 32510
L3519 24260
" />
<path d="M3019 14760
L1269 16510
" />
<path d="M1269 16510
L1269 22010
" />
<path d="M1269 22010
L3519 24260
" />
<path d="M8519 35510
L8519 36010
" />
<path d="M8019 35010
L8519 35510
" />
<path d="M7019 11260
L5269 11260
" />
<path d="M3019 13510
L3019 14760
" />
<path d="M5269 11260
L3019 13510
" />
<path d="M7019 6510
L7019 11260
" />
<path d="M9019 2010
L7769 2010
" />
<path d="M7019 2760
L7019 6510
" />
<path d="M7769 2010
L7019 2760
" />
</g>
<g style="fill:#FFFFFF; fill-opacity:1.0; 
stroke:#FFFFFF; stroke-width:39.3701; stroke-opacity:1; 
stroke-linecap:round; stroke-linejoin:round;">
<circle cx="13019.7" cy="2010.31" r="280.315" /> 
<circle cx="11019.7" cy="2010.31" r="280.315" /> 
<circle cx="9019.69" cy="2010.31" r="280.315" /> 
<circle cx="3019.69" cy="20510.3" r="280.315" /> 
<circle cx="3019.69" cy="18510.3" r="280.315" /> 
<circle cx="19269.7" cy="18510.3" r="280.315" /> 
<circle cx="19269.7" cy="20510.3" r="280.315" /> 
<circle cx="7519.69" cy="29010.3" r="205.315" /> 
<circle cx="7519.69" cy="23010.3" r="205.315" /> 
<circle cx="9019.69" cy="29010.3" r="205.315" /> 
<circle cx="9019.69" cy="23010.3" r="205.315" /> 
<circle cx="15519.7" cy="28510.3" r="140.315" /> 
<circle cx="15519.7" cy="24510.3" r="140.315" /> 
<circle cx="19019.7" cy="32010.3" r="140.315" /> 
<circle cx="15019.7" cy="32010.3" r="140.315" /> 
<circle cx="17519.7" cy="28510.3" r="140.315" /> 
<circle cx="17519.7" cy="24510.3" r="140.315" /> 
<circle cx="6019.69" cy="28010.3" r="140.315" /> 
<circle cx="6019.69" cy="24010.3" r="140.315" /> 
<circle cx="13519.7" cy="28510.3" r="140.315" /> 
<circle cx="13519.7" cy="24510.3" r="140.315" /> 
<circle cx="17519.7" cy="31010.3" r="140.315" /> 
<circle cx="13519.7" cy="31010.3" r="140.315" /> 
<circle cx="10519.7" cy="28010.3" r="140.315" /> 
<circle cx="10519.7" cy="24010.3" r="140.315" /> 
<circle cx="6019.69" cy="23010.3" r="140.315" /> 
<circle cx="6019.69" cy="17010.3" r="140.315" /> 
<circle cx="10519.7" cy="23010.3" r="140.315" /> 
<circle cx="10519.7" cy="17010.3" r="140.315" /> 
<circle cx="9019.69" cy="14760.3" r="140.315" /> 
<circle cx="3019.69" cy="14760.3" r="140.315" /> 
<circle cx="19019.7" cy="14760.3" r="140.315" /> 
<circle cx="13019.7" cy="14760.3" r="140.315" /> 
<circle cx="9019.69" cy="11260.3" r="180.315" /> 
<circle cx="7019.69" cy="11260.3" r="180.315" /> 
<circle cx="15019.7" cy="11260.3" r="180.315" /> 
<circle cx="13019.7" cy="11260.3" r="180.315" /> 
<circle cx="15019.7" cy="6510.31" r="180.315" /> 
<circle cx="13019.7" cy="6510.31" r="180.315" /> 
<circle cx="9019.69" cy="6510.31" r="180.315" /> 
<circle cx="7019.69" cy="6510.31" r="180.315" /> 
<circle cx="13519.7" cy="32010.3" r="205.315" /> 
<circle cx="7519.69" cy="32010.3" r="205.315" /> 
<circle cx="15019.7" cy="30010.3" r="205.315" /> 
<circle cx="9019.69" cy="30010.3" r="205.315" /> 
<circle cx="15519.7" cy="23010.3" r="140.315" /> 
<circle cx="15519.7" cy="22010.3" r="140.315" /> 
<circle cx="13519.7" cy="23010.3" r="140.315" /> 
<circle cx="13519.7" cy="22010.3" r="140.315" /> 
<circle cx="19269.7" cy="27510.3" r="140.315" /> 
<circle cx="19269.7" cy="28510.3" r="140.315" /> 
<circle cx="7019.69" cy="34010.3" r="180.315" /> 
<circle cx="7519.69" cy="36010.3" r="180.315" /> 
<circle cx="8019.69" cy="34010.3" r="180.315" /> 
<circle cx="8519.69" cy="36010.3" r="180.315" /> 
<circle cx="9019.69" cy="34010.3" r="180.315" /> 
<circle cx="9519.69" cy="36010.3" r="180.315" /> 
<circle cx="10019.7" cy="34010.3" r="180.315" /> 
<circle cx="10519.7" cy="36010.3" r="180.315" /> 
<circle cx="11019.7" cy="34010.3" r="180.315" /> 
<circle cx="11519.7" cy="36010.3" r="180.315" /> 
<circle cx="12019.7" cy="34010.3" r="180.315" /> 
<circle cx="13019.7" cy="34004.3" r="180.315" /> 
<circle cx="14019.7" cy="34004.3" r="180.315" /> 
<circle cx="12519.7" cy="36010.3" r="180.315" /> 
<circle cx="13519.7" cy="36010.3" r="180.315" /> 
</g> 
</svg>
